<svg width="32" height="32" viewBox="0 0 32 32" xmlns="http://www.w3.org/2000/svg">
  <!-- City skyline favicon -->
  <rect width="32" height="32" fill="#1e40af"/>
  
  <!-- Buildings -->
  <rect x="2" y="20" width="4" height="10" fill="#60a5fa"/>
  <rect x="8" y="16" width="4" height="14" fill="#3b82f6"/>
  <rect x="14" y="18" width="4" height="12" fill="#60a5fa"/>
  <rect x="20" y="14" width="4" height="16" fill="#3b82f6"/>
  <rect x="26" y="22" width="4" height="8" fill="#60a5fa"/>
  
  <!-- Windows -->
  <rect x="3" y="22" width="1" height="1" fill="#fbbf24"/>
  <rect x="5" y="24" width="1" height="1" fill="#fbbf24"/>
  <rect x="9" y="18" width="1" height="1" fill="#fbbf24"/>
  <rect x="11" y="20" width="1" height="1" fill="#fbbf24"/>
  <rect x="15" y="20" width="1" height="1" fill="#fbbf24"/>
  <rect x="17" y="22" width="1" height="1" fill="#fbbf24"/>
  <rect x="21" y="16" width="1" height="1" fill="#fbbf24"/>
  <rect x="23" y="18" width="1" height="1" fill="#fbbf24"/>
  <rect x="27" y="24" width="1" height="1" fill="#fbbf24"/>
</svg>